<?xml version="1.0" encoding="UTF-8" standalone="no"?>
<svg width="210mm" height="297mm" viewBox="0 0 744 1052" version="1.1" xmlns="http://www.w3.org/2000/svg">
  <rect style="fill:#fff;stroke:#9a3100;stroke-width:2px" width="695" height="70" x="30" y="70" />
  <text style="font-weight:700;font-size:40px;font-style:italic" x="50" y="120">$Name</text>
  <rect style="fill:#fff;stroke:#9a3100;stroke-width:2px" width="100" height="130" x="570" y="35" />
  <g>
    <text style="font-weight:700;font-size:15px;text-anchor:middle" x="90" y="195">Skill</text>
    <text style="font-weight:700;font-size:15px;text-anchor:middle" x="185" y="195">Level</text>
    <text style="font-weight:700;font-size:15px;text-anchor:middle" x="270" y="195">Task</text>
    <text style="font-weight:700;font-size:15px;text-anchor:middle" x="355" y="195">Level</text>
    <text style="font-weight:700;font-size:15px;text-anchor:middle" x="440" y="195">Task</text>
    <text style="font-weight:700;font-size:15px;text-anchor:middle" x="525" y="195">Level</text>
    <text style="font-weight:700;font-size:15px;text-anchor:middle" x="610" y="195">Task</text>
    <text style="font-weight:700;font-size:15px;text-anchor:middle" x="695" y="195">Level</text>
  </g>
  <rect style="stroke:#9a3100;stroke-width:1px" width="695" height="1" x="30" y="200" />
  <g>
    <rect height="20" x="030" y="205" width="120" style="fill:#9a3300;stroke-width:0" />
    <rect height="20" x="155" y="205" width="60" style="fill:#ffdece;stroke-width:0" />
    <rect height="20" x="220" y="205" width="100" style="fill:#ff7733;stroke-width:0" />
    <rect height="20" x="325" y="205" width="60" style="fill:#ffdece;stroke-width:0" />
    <rect height="20" x="390" y="205" width="100" style="fill:#ff7733;stroke-width:0" />
    <rect height="20" x="495" y="205" width="60" style="fill:#ffdece;stroke-width:0" />
    <rect height="20" x="560" y="205" width="100" style="fill:#ff7733;stroke-width:0" />
    <rect height="20" x="665" y="205" width="60" style="fill:#ffdece;stroke-width:0" />
    <text style="font-size:15px;fill:#fff" x="35" y="220">$Sk-1N</text>
    <text style="font-size:15px;text-anchor:middle" x="185" y="220">$Sk-1V</text>
    <text style="font-size:13px;text-anchor:middle" x="270" y="220">$Sk-1T1</text>
    <text style="font-size:13px;text-anchor:middle" x="355" y="220">$Sk-1X1</text>
    <text style="font-size:13px;text-anchor:middle" x="440" y="220">$Sk-1T2</text>
    <text style="font-size:13px;text-anchor:middle" x="525" y="220">$Sk-1X2</text>
    <text style="font-size:13px;text-anchor:middle" x="610" y="220">$Sk-1T3</text>
    <text style="font-size:13px;text-anchor:middle" x="695" y="220">$Sk-1X3</text>
  </g>
  <g transform="translate(0,25)">
    <rect height="20" x="030" y="205" width="120" style="fill:#9a3300;stroke-width:0" />
    <rect height="20" x="155" y="205" width="60" style="fill:#ffdece;stroke-width:0" />
    <rect height="20" x="220" y="205" width="100" style="fill:#ff7733;stroke-width:0" />
    <rect height="20" x="325" y="205" width="60" style="fill:#ffdece;stroke-width:0" />
    <rect height="20" x="390" y="205" width="100" style="fill:#ff7733;stroke-width:0" />
    <rect height="20" x="495" y="205" width="60" style="fill:#ffdece;stroke-width:0" />
    <rect height="20" x="560" y="205" width="100" style="fill:#ff7733;stroke-width:0" />
    <rect height="20" x="665" y="205" width="60" style="fill:#ffdece;stroke-width:0" />
    <text style="font-size:15px;fill:#fff" x="35" y="220">$Sk-2N</text>
    <text style="font-size:15px;text-anchor:middle" x="185" y="220">$Sk-2V</text>
    <text style="font-size:13px;text-anchor:middle" x="270" y="220">$Sk-2T1</text>
    <text style="font-size:13px;text-anchor:middle" x="355" y="220">$Sk-2X1</text>
    <text style="font-size:13px;text-anchor:middle" x="440" y="220">$Sk-2T2</text>
    <text style="font-size:13px;text-anchor:middle" x="525" y="220">$Sk-2X2</text>
    <text style="font-size:13px;text-anchor:middle" x="610" y="220">$Sk-2T3</text>
    <text style="font-size:13px;text-anchor:middle" x="695" y="220">$Sk-2X3</text>
  </g>
  <g transform="translate(0,50)">
    <rect height="20" x="030" y="205" width="120" style="fill:#9a3300;stroke-width:0" />
    <rect height="20" x="155" y="205" width="60" style="fill:#ffdece;stroke-width:0" />
    <rect height="20" x="220" y="205" width="100" style="fill:#ff7733;stroke-width:0" />
    <rect height="20" x="325" y="205" width="60" style="fill:#ffdece;stroke-width:0" />
    <rect height="20" x="390" y="205" width="100" style="fill:#ff7733;stroke-width:0" />
    <rect height="20" x="495" y="205" width="60" style="fill:#ffdece;stroke-width:0" />
    <rect height="20" x="560" y="205" width="100" style="fill:#ff7733;stroke-width:0" />
    <rect height="20" x="665" y="205" width="60" style="fill:#ffdece;stroke-width:0" />
    <text style="font-size:15px;fill:#fff" x="35" y="220">$Sk-3N</text>
    <text style="font-size:15px;text-anchor:middle" x="185" y="220">$Sk-3V</text>
    <text style="font-size:13px;text-anchor:middle" x="270" y="220">$Sk-3T1</text>
    <text style="font-size:13px;text-anchor:middle" x="355" y="220">$Sk-3X1</text>
    <text style="font-size:13px;text-anchor:middle" x="440" y="220">$Sk-3T2</text>
    <text style="font-size:13px;text-anchor:middle" x="525" y="220">$Sk-3X2</text>
    <text style="font-size:13px;text-anchor:middle" x="610" y="220">$Sk-3T3</text>
    <text style="font-size:13px;text-anchor:middle" x="695" y="220">$Sk-3X3</text>
  </g>
  <g transform="translate(0,75)">
    <rect height="20" x="030" y="205" width="120" style="fill:#9a3300;stroke-width:0" />
    <rect height="20" x="155" y="205" width="60" style="fill:#ffdece;stroke-width:0" />
    <rect height="20" x="220" y="205" width="100" style="fill:#ff7733;stroke-width:0" />
    <rect height="20" x="325" y="205" width="60" style="fill:#ffdece;stroke-width:0" />
    <rect height="20" x="390" y="205" width="100" style="fill:#ff7733;stroke-width:0" />
    <rect height="20" x="495" y="205" width="60" style="fill:#ffdece;stroke-width:0" />
    <rect height="20" x="560" y="205" width="100" style="fill:#ff7733;stroke-width:0" />
    <rect height="20" x="665" y="205" width="60" style="fill:#ffdece;stroke-width:0" />
    <text style="font-size:15px;fill:#fff" x="35" y="220">$Sk-4N</text>
    <text style="font-size:15px;text-anchor:middle" x="185" y="220">$Sk-4V</text>
    <text style="font-size:13px;text-anchor:middle" x="270" y="220">$Sk-4T1</text>
    <text style="font-size:13px;text-anchor:middle" x="355" y="220">$Sk-4X1</text>
    <text style="font-size:13px;text-anchor:middle" x="440" y="220">$Sk-4T2</text>
    <text style="font-size:13px;text-anchor:middle" x="525" y="220">$Sk-4X2</text>
    <text style="font-size:13px;text-anchor:middle" x="610" y="220">$Sk-4T3</text>
    <text style="font-size:13px;text-anchor:middle" x="695" y="220">$Sk-4X3</text>
  </g>
  <g transform="translate(0,100)">
    <rect height="20" x="030" y="205" width="120" style="fill:#9a3300;stroke-width:0" />
    <rect height="20" x="155" y="205" width="60" style="fill:#ffdece;stroke-width:0" />
    <rect height="20" x="220" y="205" width="100" style="fill:#ff7733;stroke-width:0" />
    <rect height="20" x="325" y="205" width="60" style="fill:#ffdece;stroke-width:0" />
    <rect height="20" x="390" y="205" width="100" style="fill:#ff7733;stroke-width:0" />
    <rect height="20" x="495" y="205" width="60" style="fill:#ffdece;stroke-width:0" />
    <rect height="20" x="560" y="205" width="100" style="fill:#ff7733;stroke-width:0" />
    <rect height="20" x="665" y="205" width="60" style="fill:#ffdece;stroke-width:0" />
    <text style="font-size:15px;fill:#fff" x="35" y="220">$Sk-5N</text>
    <text style="font-size:15px;text-anchor:middle" x="185" y="220">$Sk-5V</text>
    <text style="font-size:13px;text-anchor:middle" x="270" y="220">$Sk-5T1</text>
    <text style="font-size:13px;text-anchor:middle" x="355" y="220">$Sk-5X1</text>
    <text style="font-size:13px;text-anchor:middle" x="440" y="220">$Sk-5T2</text>
    <text style="font-size:13px;text-anchor:middle" x="525" y="220">$Sk-5X2</text>
    <text style="font-size:13px;text-anchor:middle" x="610" y="220">$Sk-5T3</text>
    <text style="font-size:13px;text-anchor:middle" x="695" y="220">$Sk-5X3</text>
  </g>
  <rect style="stroke:#9a3100;stroke-width:1px" width="695" height="1" x="30" y="330" />
  <g transform="translate(0,130)">
    <rect height="20" x="030" y="205" width="120" style="fill:#9a3300;stroke-width:0" />
    <rect height="20" x="155" y="205" width="60" style="fill:#ffdece;stroke-width:0" />
    <rect height="20" x="220" y="205" width="100" style="fill:#ff7733;stroke-width:0" />
    <rect height="20" x="325" y="205" width="60" style="fill:#ffdece;stroke-width:0" />
    <rect height="20" x="390" y="205" width="100" style="fill:#ff7733;stroke-width:0" />
    <rect height="20" x="495" y="205" width="60" style="fill:#ffdece;stroke-width:0" />
    <rect height="20" x="560" y="205" width="100" style="fill:#ff7733;stroke-width:0" />
    <rect height="20" x="665" y="205" width="60" style="fill:#ffdece;stroke-width:0" />
    <text style="font-size:15px;fill:#fff" x="35" y="220">$Sk-6N</text>
    <text style="font-size:15px;text-anchor:middle" x="185" y="220">$Sk-6V</text>
    <text style="font-size:13px;text-anchor:middle" x="270" y="220">$Sk-6T1</text>
    <text style="font-size:13px;text-anchor:middle" x="355" y="220">$Sk-6X1</text>
    <text style="font-size:13px;text-anchor:middle" x="440" y="220">$Sk-6T2</text>
    <text style="font-size:13px;text-anchor:middle" x="525" y="220">$Sk-6X2</text>
    <text style="font-size:13px;text-anchor:middle" x="610" y="220">$Sk-6T3</text>
    <text style="font-size:13px;text-anchor:middle" x="695" y="220">$Sk-6X3</text>
  </g>
  <g transform="translate(0,155)">
    <rect height="20" x="030" y="205" width="120" style="fill:#9a3300;stroke-width:0" />
    <rect height="20" x="155" y="205" width="60" style="fill:#ffdece;stroke-width:0" />
    <rect height="20" x="220" y="205" width="100" style="fill:#ff7733;stroke-width:0" />
    <rect height="20" x="325" y="205" width="60" style="fill:#ffdece;stroke-width:0" />
    <rect height="20" x="390" y="205" width="100" style="fill:#ff7733;stroke-width:0" />
    <rect height="20" x="495" y="205" width="60" style="fill:#ffdece;stroke-width:0" />
    <rect height="20" x="560" y="205" width="100" style="fill:#ff7733;stroke-width:0" />
    <rect height="20" x="665" y="205" width="60" style="fill:#ffdece;stroke-width:0" />
    <text style="font-size:15px;fill:#fff" x="35" y="220">$Sk-7N</text>
    <text style="font-size:15px;text-anchor:middle" x="185" y="220">$Sk-7V</text>
    <text style="font-size:13px;text-anchor:middle" x="270" y="220">$Sk-7T1</text>
    <text style="font-size:13px;text-anchor:middle" x="355" y="220">$Sk-7X1</text>
    <text style="font-size:13px;text-anchor:middle" x="440" y="220">$Sk-7T2</text>
    <text style="font-size:13px;text-anchor:middle" x="525" y="220">$Sk-7X2</text>
    <text style="font-size:13px;text-anchor:middle" x="610" y="220">$Sk-7T3</text>
    <text style="font-size:13px;text-anchor:middle" x="695" y="220">$Sk-7X3</text>
  </g>
  <g transform="translate(0,180)">
    <rect height="20" x="030" y="205" width="120" style="fill:#9a3300;stroke-width:0" />
    <rect height="20" x="155" y="205" width="60" style="fill:#ffdece;stroke-width:0" />
    <rect height="20" x="220" y="205" width="100" style="fill:#ff7733;stroke-width:0" />
    <rect height="20" x="325" y="205" width="60" style="fill:#ffdece;stroke-width:0" />
    <rect height="20" x="390" y="205" width="100" style="fill:#ff7733;stroke-width:0" />
    <rect height="20" x="495" y="205" width="60" style="fill:#ffdece;stroke-width:0" />
    <rect height="20" x="560" y="205" width="100" style="fill:#ff7733;stroke-width:0" />
    <rect height="20" x="665" y="205" width="60" style="fill:#ffdece;stroke-width:0" />
    <text style="font-size:15px;fill:#fff" x="35" y="220">$Sk-8N</text>
    <text style="font-size:15px;text-anchor:middle" x="185" y="220">$Sk-8V</text>
    <text style="font-size:13px;text-anchor:middle" x="270" y="220">$Sk-8T1</text>
    <text style="font-size:13px;text-anchor:middle" x="355" y="220">$Sk-8X1</text>
    <text style="font-size:13px;text-anchor:middle" x="440" y="220">$Sk-8T2</text>
    <text style="font-size:13px;text-anchor:middle" x="525" y="220">$Sk-8X2</text>
    <text style="font-size:13px;text-anchor:middle" x="610" y="220">$Sk-8T3</text>
    <text style="font-size:13px;text-anchor:middle" x="695" y="220">$Sk-8X3</text>
  </g>
  <g transform="translate(0,205)">
    <rect height="20" x="030" y="205" width="120" style="fill:#9a3300;stroke-width:0" />
    <rect height="20" x="155" y="205" width="60" style="fill:#ffdece;stroke-width:0" />
    <rect height="20" x="220" y="205" width="100" style="fill:#ff7733;stroke-width:0" />
    <rect height="20" x="325" y="205" width="60" style="fill:#ffdece;stroke-width:0" />
    <rect height="20" x="390" y="205" width="100" style="fill:#ff7733;stroke-width:0" />
    <rect height="20" x="495" y="205" width="60" style="fill:#ffdece;stroke-width:0" />
    <rect height="20" x="560" y="205" width="100" style="fill:#ff7733;stroke-width:0" />
    <rect height="20" x="665" y="205" width="60" style="fill:#ffdece;stroke-width:0" />
    <text style="font-size:15px;fill:#fff" x="35" y="220">$Sk-9N</text>
    <text style="font-size:15px;text-anchor:middle" x="185" y="220">$Sk-9V</text>
    <text style="font-size:13px;text-anchor:middle" x="270" y="220">$Sk-9T1</text>
    <text style="font-size:13px;text-anchor:middle" x="355" y="220">$Sk-9X1</text>
    <text style="font-size:13px;text-anchor:middle" x="440" y="220">$Sk-9T2</text>
    <text style="font-size:13px;text-anchor:middle" x="525" y="220">$Sk-9X2</text>
    <text style="font-size:13px;text-anchor:middle" x="610" y="220">$Sk-9T3</text>
    <text style="font-size:13px;text-anchor:middle" x="695" y="220">$Sk-9X3</text>
  </g>
  <g transform="translate(0,230)">
    <rect height="20" x="030" y="205" width="120" style="fill:#9a3300;stroke-width:0" />
    <rect height="20" x="155" y="205" width="60" style="fill:#ffdece;stroke-width:0" />
    <rect height="20" x="220" y="205" width="100" style="fill:#ff7733;stroke-width:0" />
    <rect height="20" x="325" y="205" width="60" style="fill:#ffdece;stroke-width:0" />
    <rect height="20" x="390" y="205" width="100" style="fill:#ff7733;stroke-width:0" />
    <rect height="20" x="495" y="205" width="60" style="fill:#ffdece;stroke-width:0" />
    <rect height="20" x="560" y="205" width="100" style="fill:#ff7733;stroke-width:0" />
    <rect height="20" x="665" y="205" width="60" style="fill:#ffdece;stroke-width:0" />
    <text style="font-size:15px;fill:#fff" x="35" y="220">$Sk-10N</text>
    <text style="font-size:15px;text-anchor:middle" x="185" y="220">$Sk-10V</text>
    <text style="font-size:13px;text-anchor:middle" x="270" y="220">$Sk-10T1</text>
    <text style="font-size:13px;text-anchor:middle" x="355" y="220">$Sk-10X1</text>
    <text style="font-size:13px;text-anchor:middle" x="440" y="220">$Sk-10T2</text>
    <text style="font-size:13px;text-anchor:middle" x="525" y="220">$Sk-10X2</text>
    <text style="font-size:13px;text-anchor:middle" x="610" y="220">$Sk-10T3</text>
    <text style="font-size:13px;text-anchor:middle" x="695" y="220">$Sk-10X3</text>
  </g>
  <rect style="stroke:#9a3100;stroke-width:1px" width="695" height="1" x="30" y="460" />
  <g transform="translate(0,260)">
    <rect height="20" x="030" y="205" width="120" style="fill:#9a3300;stroke-width:0" />
    <rect height="20" x="155" y="205" width="60" style="fill:#ffdece;stroke-width:0" />
    <rect height="20" x="220" y="205" width="100" style="fill:#ff7733;stroke-width:0" />
    <rect height="20" x="325" y="205" width="60" style="fill:#ffdece;stroke-width:0" />
    <rect height="20" x="390" y="205" width="100" style="fill:#ff7733;stroke-width:0" />
    <rect height="20" x="495" y="205" width="60" style="fill:#ffdece;stroke-width:0" />
    <rect height="20" x="560" y="205" width="100" style="fill:#ff7733;stroke-width:0" />
    <rect height="20" x="665" y="205" width="60" style="fill:#ffdece;stroke-width:0" />
    <text style="font-size:15px;fill:#fff" x="35" y="220">$Sk-11N</text>
    <text style="font-size:15px;text-anchor:middle" x="185" y="220">$Sk-11V</text>
    <text style="font-size:13px;text-anchor:middle" x="270" y="220">$Sk-11T1</text>
    <text style="font-size:13px;text-anchor:middle" x="355" y="220">$Sk-11X1</text>
    <text style="font-size:13px;text-anchor:middle" x="440" y="220">$Sk-11T2</text>
    <text style="font-size:13px;text-anchor:middle" x="525" y="220">$Sk-11X2</text>
    <text style="font-size:13px;text-anchor:middle" x="610" y="220">$Sk-11T3</text>
    <text style="font-size:13px;text-anchor:middle" x="695" y="220">$Sk-11X3</text>
  </g>
  <g transform="translate(0,285)">
    <rect height="20" x="030" y="205" width="120" style="fill:#9a3300;stroke-width:0" />
    <rect height="20" x="155" y="205" width="60" style="fill:#ffdece;stroke-width:0" />
    <rect height="20" x="220" y="205" width="100" style="fill:#ff7733;stroke-width:0" />
    <rect height="20" x="325" y="205" width="60" style="fill:#ffdece;stroke-width:0" />
    <rect height="20" x="390" y="205" width="100" style="fill:#ff7733;stroke-width:0" />
    <rect height="20" x="495" y="205" width="60" style="fill:#ffdece;stroke-width:0" />
    <rect height="20" x="560" y="205" width="100" style="fill:#ff7733;stroke-width:0" />
    <rect height="20" x="665" y="205" width="60" style="fill:#ffdece;stroke-width:0" />
    <text style="font-size:15px;fill:#fff" x="35" y="220">$Sk-12N</text>
    <text style="font-size:15px;text-anchor:middle" x="185" y="220">$Sk-12V</text>
    <text style="font-size:13px;text-anchor:middle" x="270" y="220">$Sk-12T1</text>
    <text style="font-size:13px;text-anchor:middle" x="355" y="220">$Sk-12X1</text>
    <text style="font-size:13px;text-anchor:middle" x="440" y="220">$Sk-12T2</text>
    <text style="font-size:13px;text-anchor:middle" x="525" y="220">$Sk-12X2</text>
    <text style="font-size:13px;text-anchor:middle" x="610" y="220">$Sk-12T3</text>
    <text style="font-size:13px;text-anchor:middle" x="695" y="220">$Sk-12X3</text>
  </g>
  <g transform="translate(0,310)">
    <rect height="20" x="030" y="205" width="120" style="fill:#9a3300;stroke-width:0" />
    <rect height="20" x="155" y="205" width="60" style="fill:#ffdece;stroke-width:0" />
    <rect height="20" x="220" y="205" width="100" style="fill:#ff7733;stroke-width:0" />
    <rect height="20" x="325" y="205" width="60" style="fill:#ffdece;stroke-width:0" />
    <rect height="20" x="390" y="205" width="100" style="fill:#ff7733;stroke-width:0" />
    <rect height="20" x="495" y="205" width="60" style="fill:#ffdece;stroke-width:0" />
    <rect height="20" x="560" y="205" width="100" style="fill:#ff7733;stroke-width:0" />
    <rect height="20" x="665" y="205" width="60" style="fill:#ffdece;stroke-width:0" />
    <text style="font-size:15px;fill:#fff" x="35" y="220">$Sk-13N</text>
    <text style="font-size:15px;text-anchor:middle" x="185" y="220">$Sk-13V</text>
    <text style="font-size:13px;text-anchor:middle" x="270" y="220">$Sk-13T1</text>
    <text style="font-size:13px;text-anchor:middle" x="355" y="220">$Sk-13X1</text>
    <text style="font-size:13px;text-anchor:middle" x="440" y="220">$Sk-13T2</text>
    <text style="font-size:13px;text-anchor:middle" x="525" y="220">$Sk-13X2</text>
    <text style="font-size:13px;text-anchor:middle" x="610" y="220">$Sk-13T3</text>
    <text style="font-size:13px;text-anchor:middle" x="695" y="220">$Sk-13X3</text>
  </g>
  <g transform="translate(0,335)">
    <rect height="20" x="030" y="205" width="120" style="fill:#9a3300;stroke-width:0" />
    <rect height="20" x="155" y="205" width="60" style="fill:#ffdece;stroke-width:0" />
    <rect height="20" x="220" y="205" width="100" style="fill:#ff7733;stroke-width:0" />
    <rect height="20" x="325" y="205" width="60" style="fill:#ffdece;stroke-width:0" />
    <rect height="20" x="390" y="205" width="100" style="fill:#ff7733;stroke-width:0" />
    <rect height="20" x="495" y="205" width="60" style="fill:#ffdece;stroke-width:0" />
    <rect height="20" x="560" y="205" width="100" style="fill:#ff7733;stroke-width:0" />
    <rect height="20" x="665" y="205" width="60" style="fill:#ffdece;stroke-width:0" />
    <text style="font-size:15px;fill:#fff" x="35" y="220">$Sk-14N</text>
    <text style="font-size:15px;text-anchor:middle" x="185" y="220">$Sk-14V</text>
    <text style="font-size:13px;text-anchor:middle" x="270" y="220">$Sk-14T1</text>
    <text style="font-size:13px;text-anchor:middle" x="355" y="220">$Sk-14X1</text>
    <text style="font-size:13px;text-anchor:middle" x="440" y="220">$Sk-14T2</text>
    <text style="font-size:13px;text-anchor:middle" x="525" y="220">$Sk-14X2</text>
    <text style="font-size:13px;text-anchor:middle" x="610" y="220">$Sk-14T3</text>
    <text style="font-size:13px;text-anchor:middle" x="695" y="220">$Sk-14X3</text>
  </g>
  <g transform="translate(0,360)">
    <rect height="20" x="030" y="205" width="120" style="fill:#9a3300;stroke-width:0" />
    <rect height="20" x="155" y="205" width="60" style="fill:#ffdece;stroke-width:0" />
    <rect height="20" x="220" y="205" width="100" style="fill:#ff7733;stroke-width:0" />
    <rect height="20" x="325" y="205" width="60" style="fill:#ffdece;stroke-width:0" />
    <rect height="20" x="390" y="205" width="100" style="fill:#ff7733;stroke-width:0" />
    <rect height="20" x="495" y="205" width="60" style="fill:#ffdece;stroke-width:0" />
    <rect height="20" x="560" y="205" width="100" style="fill:#ff7733;stroke-width:0" />
    <rect height="20" x="665" y="205" width="60" style="fill:#ffdece;stroke-width:0" />
    <text style="font-size:15px;fill:#fff" x="35" y="220">$Sk-15N</text>
    <text style="font-size:15px;text-anchor:middle" x="185" y="220">$Sk-15V</text>
    <text style="font-size:13px;text-anchor:middle" x="270" y="220">$Sk-15T1</text>
    <text style="font-size:13px;text-anchor:middle" x="355" y="220">$Sk-15X1</text>
    <text style="font-size:13px;text-anchor:middle" x="440" y="220">$Sk-15T2</text>
    <text style="font-size:13px;text-anchor:middle" x="525" y="220">$Sk-15X2</text>
    <text style="font-size:13px;text-anchor:middle" x="610" y="220">$Sk-15T3</text>
    <text style="font-size:13px;text-anchor:middle" x="695" y="220">$Sk-15X3</text>
  </g>
  <rect style="stroke:#9a3100;stroke-width:1px" width="695" height="1" x="30" y="590" />
  <g transform="translate(0,390)">
    <rect height="20" x="030" y="205" width="120" style="fill:#9a3300;stroke-width:0" />
    <rect height="20" x="155" y="205" width="60" style="fill:#ffdece;stroke-width:0" />
    <rect height="20" x="220" y="205" width="100" style="fill:#ff7733;stroke-width:0" />
    <rect height="20" x="325" y="205" width="60" style="fill:#ffdece;stroke-width:0" />
    <rect height="20" x="390" y="205" width="100" style="fill:#ff7733;stroke-width:0" />
    <rect height="20" x="495" y="205" width="60" style="fill:#ffdece;stroke-width:0" />
    <rect height="20" x="560" y="205" width="100" style="fill:#ff7733;stroke-width:0" />
    <rect height="20" x="665" y="205" width="60" style="fill:#ffdece;stroke-width:0" />
    <text style="font-size:15px;fill:#fff" x="35" y="220">$Sk-16N</text>
    <text style="font-size:15px;text-anchor:middle" x="185" y="220">$Sk-16V</text>
    <text style="font-size:13px;text-anchor:middle" x="270" y="220">$Sk-16T1</text>
    <text style="font-size:13px;text-anchor:middle" x="355" y="220">$Sk-16X1</text>
    <text style="font-size:13px;text-anchor:middle" x="440" y="220">$Sk-16T2</text>
    <text style="font-size:13px;text-anchor:middle" x="525" y="220">$Sk-16X2</text>
    <text style="font-size:13px;text-anchor:middle" x="610" y="220">$Sk-16T3</text>
    <text style="font-size:13px;text-anchor:middle" x="695" y="220">$Sk-16X3</text>
  </g>
  <g transform="translate(0,415)">
    <rect height="20" x="030" y="205" width="120" style="fill:#9a3300;stroke-width:0" />
    <rect height="20" x="155" y="205" width="60" style="fill:#ffdece;stroke-width:0" />
    <rect height="20" x="220" y="205" width="100" style="fill:#ff7733;stroke-width:0" />
    <rect height="20" x="325" y="205" width="60" style="fill:#ffdece;stroke-width:0" />
    <rect height="20" x="390" y="205" width="100" style="fill:#ff7733;stroke-width:0" />
    <rect height="20" x="495" y="205" width="60" style="fill:#ffdece;stroke-width:0" />
    <rect height="20" x="560" y="205" width="100" style="fill:#ff7733;stroke-width:0" />
    <rect height="20" x="665" y="205" width="60" style="fill:#ffdece;stroke-width:0" />
    <text style="font-size:15px;fill:#fff" x="35" y="220">$Sk-17N</text>
    <text style="font-size:15px;text-anchor:middle" x="185" y="220">$Sk-17V</text>
    <text style="font-size:13px;text-anchor:middle" x="270" y="220">$Sk-17T1</text>
    <text style="font-size:13px;text-anchor:middle" x="355" y="220">$Sk-17X1</text>
    <text style="font-size:13px;text-anchor:middle" x="440" y="220">$Sk-17T2</text>
    <text style="font-size:13px;text-anchor:middle" x="525" y="220">$Sk-17X2</text>
    <text style="font-size:13px;text-anchor:middle" x="610" y="220">$Sk-17T3</text>
    <text style="font-size:13px;text-anchor:middle" x="695" y="220">$Sk-17X3</text>
  </g>
  <g transform="translate(0,440)">
    <rect height="20" x="030" y="205" width="120" style="fill:#9a3300;stroke-width:0" />
    <rect height="20" x="155" y="205" width="60" style="fill:#ffdece;stroke-width:0" />
    <rect height="20" x="220" y="205" width="100" style="fill:#ff7733;stroke-width:0" />
    <rect height="20" x="325" y="205" width="60" style="fill:#ffdece;stroke-width:0" />
    <rect height="20" x="390" y="205" width="100" style="fill:#ff7733;stroke-width:0" />
    <rect height="20" x="495" y="205" width="60" style="fill:#ffdece;stroke-width:0" />
    <rect height="20" x="560" y="205" width="100" style="fill:#ff7733;stroke-width:0" />
    <rect height="20" x="665" y="205" width="60" style="fill:#ffdece;stroke-width:0" />
    <text style="font-size:15px;fill:#fff" x="35" y="220">$Sk-18N</text>
    <text style="font-size:15px;text-anchor:middle" x="185" y="220">$Sk-18V</text>
    <text style="font-size:13px;text-anchor:middle" x="270" y="220">$Sk-18T1</text>
    <text style="font-size:13px;text-anchor:middle" x="355" y="220">$Sk-18X1</text>
    <text style="font-size:13px;text-anchor:middle" x="440" y="220">$Sk-18T2</text>
    <text style="font-size:13px;text-anchor:middle" x="525" y="220">$Sk-18X2</text>
    <text style="font-size:13px;text-anchor:middle" x="610" y="220">$Sk-18T3</text>
    <text style="font-size:13px;text-anchor:middle" x="695" y="220">$Sk-18X3</text>
  </g>
  <g transform="translate(0,465)">
    <rect height="20" x="030" y="205" width="120" style="fill:#9a3300;stroke-width:0" />
    <rect height="20" x="155" y="205" width="60" style="fill:#ffdece;stroke-width:0" />
    <rect height="20" x="220" y="205" width="100" style="fill:#ff7733;stroke-width:0" />
    <rect height="20" x="325" y="205" width="60" style="fill:#ffdece;stroke-width:0" />
    <rect height="20" x="390" y="205" width="100" style="fill:#ff7733;stroke-width:0" />
    <rect height="20" x="495" y="205" width="60" style="fill:#ffdece;stroke-width:0" />
    <rect height="20" x="560" y="205" width="100" style="fill:#ff7733;stroke-width:0" />
    <rect height="20" x="665" y="205" width="60" style="fill:#ffdece;stroke-width:0" />
    <text style="font-size:15px;fill:#fff" x="35" y="220">$Sk-19N</text>
    <text style="font-size:15px;text-anchor:middle" x="185" y="220">$Sk-19V</text>
    <text style="font-size:13px;text-anchor:middle" x="270" y="220">$Sk-19T1</text>
    <text style="font-size:13px;text-anchor:middle" x="355" y="220">$Sk-19X1</text>
    <text style="font-size:13px;text-anchor:middle" x="440" y="220">$Sk-19T2</text>
    <text style="font-size:13px;text-anchor:middle" x="525" y="220">$Sk-19X2</text>
    <text style="font-size:13px;text-anchor:middle" x="610" y="220">$Sk-19T3</text>
    <text style="font-size:13px;text-anchor:middle" x="695" y="220">$Sk-19X3</text>
  </g>
  <g transform="translate(0,490)">
    <rect height="20" x="030" y="205" width="120" style="fill:#9a3300;stroke-width:0" />
    <rect height="20" x="155" y="205" width="60" style="fill:#ffdece;stroke-width:0" />
    <rect height="20" x="220" y="205" width="100" style="fill:#ff7733;stroke-width:0" />
    <rect height="20" x="325" y="205" width="60" style="fill:#ffdece;stroke-width:0" />
    <rect height="20" x="390" y="205" width="100" style="fill:#ff7733;stroke-width:0" />
    <rect height="20" x="495" y="205" width="60" style="fill:#ffdece;stroke-width:0" />
    <rect height="20" x="560" y="205" width="100" style="fill:#ff7733;stroke-width:0" />
    <rect height="20" x="665" y="205" width="60" style="fill:#ffdece;stroke-width:0" />
    <text style="font-size:15px;fill:#fff" x="35" y="220">$Sk-20N</text>
    <text style="font-size:15px;text-anchor:middle" x="185" y="220">$Sk-20V</text>
    <text style="font-size:13px;text-anchor:middle" x="270" y="220">$Sk-20T1</text>
    <text style="font-size:13px;text-anchor:middle" x="355" y="220">$Sk-20X1</text>
    <text style="font-size:13px;text-anchor:middle" x="440" y="220">$Sk-20T2</text>
    <text style="font-size:13px;text-anchor:middle" x="525" y="220">$Sk-20X2</text>
    <text style="font-size:13px;text-anchor:middle" x="610" y="220">$Sk-20T3</text>
    <text style="font-size:13px;text-anchor:middle" x="695" y="220">$Sk-20X3</text>
  </g>
  <rect style="stroke:#9a3100;stroke-width:1px" width="695" height="1" x="30" y="720" />
  <g transform="translate(0,520)">
    <rect height="20" x="030" y="205" width="120" style="fill:#9a3300;stroke-width:0" />
    <rect height="20" x="155" y="205" width="60" style="fill:#ffdece;stroke-width:0" />
    <rect height="20" x="220" y="205" width="100" style="fill:#ff7733;stroke-width:0" />
    <rect height="20" x="325" y="205" width="60" style="fill:#ffdece;stroke-width:0" />
    <rect height="20" x="390" y="205" width="100" style="fill:#ff7733;stroke-width:0" />
    <rect height="20" x="495" y="205" width="60" style="fill:#ffdece;stroke-width:0" />
    <rect height="20" x="560" y="205" width="100" style="fill:#ff7733;stroke-width:0" />
    <rect height="20" x="665" y="205" width="60" style="fill:#ffdece;stroke-width:0" />
    <text style="font-size:15px;fill:#fff" x="35" y="220">$Sk-21N</text>
    <text style="font-size:15px;text-anchor:middle" x="185" y="220">$Sk-21V</text>
    <text style="font-size:13px;text-anchor:middle" x="270" y="220">$Sk-21T1</text>
    <text style="font-size:13px;text-anchor:middle" x="355" y="220">$Sk-21X1</text>
    <text style="font-size:13px;text-anchor:middle" x="440" y="220">$Sk-21T2</text>
    <text style="font-size:13px;text-anchor:middle" x="525" y="220">$Sk-21X2</text>
    <text style="font-size:13px;text-anchor:middle" x="610" y="220">$Sk-21T3</text>
    <text style="font-size:13px;text-anchor:middle" x="695" y="220">$Sk-21X3</text>
  </g>
  <g transform="translate(0,545)">
    <rect height="20" x="030" y="205" width="120" style="fill:#9a3300;stroke-width:0" />
    <rect height="20" x="155" y="205" width="60" style="fill:#ffdece;stroke-width:0" />
    <rect height="20" x="220" y="205" width="100" style="fill:#ff7733;stroke-width:0" />
    <rect height="20" x="325" y="205" width="60" style="fill:#ffdece;stroke-width:0" />
    <rect height="20" x="390" y="205" width="100" style="fill:#ff7733;stroke-width:0" />
    <rect height="20" x="495" y="205" width="60" style="fill:#ffdece;stroke-width:0" />
    <rect height="20" x="560" y="205" width="100" style="fill:#ff7733;stroke-width:0" />
    <rect height="20" x="665" y="205" width="60" style="fill:#ffdece;stroke-width:0" />
    <text style="font-size:15px;fill:#fff" x="35" y="220">$Sk-22N</text>
    <text style="font-size:15px;text-anchor:middle" x="185" y="220">$Sk-22V</text>
    <text style="font-size:13px;text-anchor:middle" x="270" y="220">$Sk-22T1</text>
    <text style="font-size:13px;text-anchor:middle" x="355" y="220">$Sk-22X1</text>
    <text style="font-size:13px;text-anchor:middle" x="440" y="220">$Sk-22T2</text>
    <text style="font-size:13px;text-anchor:middle" x="525" y="220">$Sk-22X2</text>
    <text style="font-size:13px;text-anchor:middle" x="610" y="220">$Sk-22T3</text>
    <text style="font-size:13px;text-anchor:middle" x="695" y="220">$Sk-22X3</text>
  </g>
  <g transform="translate(0,570)">
    <rect height="20" x="030" y="205" width="120" style="fill:#9a3300;stroke-width:0" />
    <rect height="20" x="155" y="205" width="60" style="fill:#ffdece;stroke-width:0" />
    <rect height="20" x="220" y="205" width="100" style="fill:#ff7733;stroke-width:0" />
    <rect height="20" x="325" y="205" width="60" style="fill:#ffdece;stroke-width:0" />
    <rect height="20" x="390" y="205" width="100" style="fill:#ff7733;stroke-width:0" />
    <rect height="20" x="495" y="205" width="60" style="fill:#ffdece;stroke-width:0" />
    <rect height="20" x="560" y="205" width="100" style="fill:#ff7733;stroke-width:0" />
    <rect height="20" x="665" y="205" width="60" style="fill:#ffdece;stroke-width:0" />
    <text style="font-size:15px;fill:#fff" x="35" y="220">$Sk-23N</text>
    <text style="font-size:15px;text-anchor:middle" x="185" y="220">$Sk-23V</text>
    <text style="font-size:13px;text-anchor:middle" x="270" y="220">$Sk-23T1</text>
    <text style="font-size:13px;text-anchor:middle" x="355" y="220">$Sk-23X1</text>
    <text style="font-size:13px;text-anchor:middle" x="440" y="220">$Sk-23T2</text>
    <text style="font-size:13px;text-anchor:middle" x="525" y="220">$Sk-23X2</text>
    <text style="font-size:13px;text-anchor:middle" x="610" y="220">$Sk-23T3</text>
    <text style="font-size:13px;text-anchor:middle" x="695" y="220">$Sk-23X3</text>
  </g>
  <g transform="translate(0,595)">
    <rect height="20" x="030" y="205" width="120" style="fill:#9a3300;stroke-width:0" />
    <rect height="20" x="155" y="205" width="60" style="fill:#ffdece;stroke-width:0" />
    <rect height="20" x="220" y="205" width="100" style="fill:#ff7733;stroke-width:0" />
    <rect height="20" x="325" y="205" width="60" style="fill:#ffdece;stroke-width:0" />
    <rect height="20" x="390" y="205" width="100" style="fill:#ff7733;stroke-width:0" />
    <rect height="20" x="495" y="205" width="60" style="fill:#ffdece;stroke-width:0" />
    <rect height="20" x="560" y="205" width="100" style="fill:#ff7733;stroke-width:0" />
    <rect height="20" x="665" y="205" width="60" style="fill:#ffdece;stroke-width:0" />
    <text style="font-size:15px;fill:#fff" x="35" y="220">$Sk-24N</text>
    <text style="font-size:15px;text-anchor:middle" x="185" y="220">$Sk-24V</text>
    <text style="font-size:13px;text-anchor:middle" x="270" y="220">$Sk-24T1</text>
    <text style="font-size:13px;text-anchor:middle" x="355" y="220">$Sk-24X1</text>
    <text style="font-size:13px;text-anchor:middle" x="440" y="220">$Sk-24T2</text>
    <text style="font-size:13px;text-anchor:middle" x="525" y="220">$Sk-24X2</text>
    <text style="font-size:13px;text-anchor:middle" x="610" y="220">$Sk-24T3</text>
    <text style="font-size:13px;text-anchor:middle" x="695" y="220">$Sk-24X3</text>
  </g>
  <g transform="translate(0,620)">
    <rect height="20" x="030" y="205" width="120" style="fill:#9a3300;stroke-width:0" />
    <rect height="20" x="155" y="205" width="60" style="fill:#ffdece;stroke-width:0" />
    <rect height="20" x="220" y="205" width="100" style="fill:#ff7733;stroke-width:0" />
    <rect height="20" x="325" y="205" width="60" style="fill:#ffdece;stroke-width:0" />
    <rect height="20" x="390" y="205" width="100" style="fill:#ff7733;stroke-width:0" />
    <rect height="20" x="495" y="205" width="60" style="fill:#ffdece;stroke-width:0" />
    <rect height="20" x="560" y="205" width="100" style="fill:#ff7733;stroke-width:0" />
    <rect height="20" x="665" y="205" width="60" style="fill:#ffdece;stroke-width:0" />
    <text style="font-size:15px;fill:#fff" x="35" y="220">$Sk-25N</text>
    <text style="font-size:15px;text-anchor:middle" x="185" y="220">$Sk-25V</text>
    <text style="font-size:13px;text-anchor:middle" x="270" y="220">$Sk-25T1</text>
    <text style="font-size:13px;text-anchor:middle" x="355" y="220">$Sk-25X1</text>
    <text style="font-size:13px;text-anchor:middle" x="440" y="220">$Sk-25T2</text>
    <text style="font-size:13px;text-anchor:middle" x="525" y="220">$Sk-25X2</text>
    <text style="font-size:13px;text-anchor:middle" x="610" y="220">$Sk-25T3</text>
    <text style="font-size:13px;text-anchor:middle" x="695" y="220">$Sk-25X3</text>
  </g>
  <rect style="stroke:#9a3100;stroke-width:1px" width="695" height="1" x="30" y="850" />
  <g transform="translate(0,650)">
    <rect height="20" x="030" y="205" width="120" style="fill:#9a3300;stroke-width:0" />
    <rect height="20" x="155" y="205" width="60" style="fill:#ffdece;stroke-width:0" />
    <rect height="20" x="220" y="205" width="100" style="fill:#ff7733;stroke-width:0" />
    <rect height="20" x="325" y="205" width="60" style="fill:#ffdece;stroke-width:0" />
    <rect height="20" x="390" y="205" width="100" style="fill:#ff7733;stroke-width:0" />
    <rect height="20" x="495" y="205" width="60" style="fill:#ffdece;stroke-width:0" />
    <rect height="20" x="560" y="205" width="100" style="fill:#ff7733;stroke-width:0" />
    <rect height="20" x="665" y="205" width="60" style="fill:#ffdece;stroke-width:0" />
    <text style="font-size:15px;fill:#fff" x="35" y="220">$Sk-26N</text>
    <text style="font-size:15px;text-anchor:middle" x="185" y="220">$Sk-26V</text>
    <text style="font-size:13px;text-anchor:middle" x="270" y="220">$Sk-26T1</text>
    <text style="font-size:13px;text-anchor:middle" x="355" y="220">$Sk-26X1</text>
    <text style="font-size:13px;text-anchor:middle" x="440" y="220">$Sk-26T2</text>
    <text style="font-size:13px;text-anchor:middle" x="525" y="220">$Sk-26X2</text>
    <text style="font-size:13px;text-anchor:middle" x="610" y="220">$Sk-26T3</text>
    <text style="font-size:13px;text-anchor:middle" x="695" y="220">$Sk-26X3</text>
  </g>
  <g transform="translate(0,675)">
    <rect height="20" x="030" y="205" width="120" style="fill:#9a3300;stroke-width:0" />
    <rect height="20" x="155" y="205" width="60" style="fill:#ffdece;stroke-width:0" />
    <rect height="20" x="220" y="205" width="100" style="fill:#ff7733;stroke-width:0" />
    <rect height="20" x="325" y="205" width="60" style="fill:#ffdece;stroke-width:0" />
    <rect height="20" x="390" y="205" width="100" style="fill:#ff7733;stroke-width:0" />
    <rect height="20" x="495" y="205" width="60" style="fill:#ffdece;stroke-width:0" />
    <rect height="20" x="560" y="205" width="100" style="fill:#ff7733;stroke-width:0" />
    <rect height="20" x="665" y="205" width="60" style="fill:#ffdece;stroke-width:0" />
    <text style="font-size:15px;fill:#fff" x="35" y="220">$Sk-27N</text>
    <text style="font-size:15px;text-anchor:middle" x="185" y="220">$Sk-27V</text>
    <text style="font-size:13px;text-anchor:middle" x="270" y="220">$Sk-27T1</text>
    <text style="font-size:13px;text-anchor:middle" x="355" y="220">$Sk-27X1</text>
    <text style="font-size:13px;text-anchor:middle" x="440" y="220">$Sk-27T2</text>
    <text style="font-size:13px;text-anchor:middle" x="525" y="220">$Sk-27X2</text>
    <text style="font-size:13px;text-anchor:middle" x="610" y="220">$Sk-27T3</text>
    <text style="font-size:13px;text-anchor:middle" x="695" y="220">$Sk-27X3</text>
  </g>
  <g transform="translate(0,700)">
    <rect height="20" x="030" y="205" width="120" style="fill:#9a3300;stroke-width:0" />
    <rect height="20" x="155" y="205" width="60" style="fill:#ffdece;stroke-width:0" />
    <rect height="20" x="220" y="205" width="100" style="fill:#ff7733;stroke-width:0" />
    <rect height="20" x="325" y="205" width="60" style="fill:#ffdece;stroke-width:0" />
    <rect height="20" x="390" y="205" width="100" style="fill:#ff7733;stroke-width:0" />
    <rect height="20" x="495" y="205" width="60" style="fill:#ffdece;stroke-width:0" />
    <rect height="20" x="560" y="205" width="100" style="fill:#ff7733;stroke-width:0" />
    <rect height="20" x="665" y="205" width="60" style="fill:#ffdece;stroke-width:0" />
    <text style="font-size:15px;fill:#fff" x="35" y="220">$Sk-28N</text>
    <text style="font-size:15px;text-anchor:middle" x="185" y="220">$Sk-28V</text>
    <text style="font-size:13px;text-anchor:middle" x="270" y="220">$Sk-28T1</text>
    <text style="font-size:13px;text-anchor:middle" x="355" y="220">$Sk-28X1</text>
    <text style="font-size:13px;text-anchor:middle" x="440" y="220">$Sk-28T2</text>
    <text style="font-size:13px;text-anchor:middle" x="525" y="220">$Sk-28X2</text>
    <text style="font-size:13px;text-anchor:middle" x="610" y="220">$Sk-28T3</text>
    <text style="font-size:13px;text-anchor:middle" x="695" y="220">$Sk-28X3</text>
  </g>
  <g transform="translate(0,725)">
    <rect height="20" x="030" y="205" width="120" style="fill:#9a3300;stroke-width:0" />
    <rect height="20" x="155" y="205" width="60" style="fill:#ffdece;stroke-width:0" />
    <rect height="20" x="220" y="205" width="100" style="fill:#ff7733;stroke-width:0" />
    <rect height="20" x="325" y="205" width="60" style="fill:#ffdece;stroke-width:0" />
    <rect height="20" x="390" y="205" width="100" style="fill:#ff7733;stroke-width:0" />
    <rect height="20" x="495" y="205" width="60" style="fill:#ffdece;stroke-width:0" />
    <rect height="20" x="560" y="205" width="100" style="fill:#ff7733;stroke-width:0" />
    <rect height="20" x="665" y="205" width="60" style="fill:#ffdece;stroke-width:0" />
    <text style="font-size:15px;fill:#fff" x="35" y="220">$Sk-29N</text>
    <text style="font-size:15px;text-anchor:middle" x="185" y="220">$Sk-29V</text>
    <text style="font-size:13px;text-anchor:middle" x="270" y="220">$Sk-29T1</text>
    <text style="font-size:13px;text-anchor:middle" x="355" y="220">$Sk-29X1</text>
    <text style="font-size:13px;text-anchor:middle" x="440" y="220">$Sk-29T2</text>
    <text style="font-size:13px;text-anchor:middle" x="525" y="220">$Sk-29X2</text>
    <text style="font-size:13px;text-anchor:middle" x="610" y="220">$Sk-29T3</text>
    <text style="font-size:13px;text-anchor:middle" x="695" y="220">$Sk-29X3</text>
  </g>
  <g transform="translate(0,750)">
    <rect height="20" x="030" y="205" width="120" style="fill:#9a3300;stroke-width:0" />
    <rect height="20" x="155" y="205" width="60" style="fill:#ffdece;stroke-width:0" />
    <rect height="20" x="220" y="205" width="100" style="fill:#ff7733;stroke-width:0" />
    <rect height="20" x="325" y="205" width="60" style="fill:#ffdece;stroke-width:0" />
    <rect height="20" x="390" y="205" width="100" style="fill:#ff7733;stroke-width:0" />
    <rect height="20" x="495" y="205" width="60" style="fill:#ffdece;stroke-width:0" />
    <rect height="20" x="560" y="205" width="100" style="fill:#ff7733;stroke-width:0" />
    <rect height="20" x="665" y="205" width="60" style="fill:#ffdece;stroke-width:0" />
    <text style="font-size:15px;fill:#fff" x="35" y="220">$Sk-30N</text>
    <text style="font-size:15px;text-anchor:middle" x="185" y="220">$Sk-30V</text>
    <text style="font-size:13px;text-anchor:middle" x="270" y="220">$Sk-30T1</text>
    <text style="font-size:13px;text-anchor:middle" x="355" y="220">$Sk-30X1</text>
    <text style="font-size:13px;text-anchor:middle" x="440" y="220">$Sk-30T2</text>
    <text style="font-size:13px;text-anchor:middle" x="525" y="220">$Sk-30X2</text>
    <text style="font-size:13px;text-anchor:middle" x="610" y="220">$Sk-30T3</text>
    <text style="font-size:13px;text-anchor:middle" x="695" y="220">$Sk-30X3</text>
  </g>
  <rect style="stroke:#9a3100;stroke-width:1px" width="695" height="1" x="30" y="980" />
</svg>
