<?xml version="1.0" encoding="UTF-8" standalone="no"?>
<svg width="210mm" height="297mm" viewBox="0 0 760 1075" version="1.1" xmlns="http://www.w3.org/2000/svg" xmlns:xlink="http://www.w3.org/1999/xlink">
  <style>
    @import url("https://fonts.googleapis.com/css?family=Merriweather");
  </style>
  <g transform="scale(1,.95)">
    <rect style="fill:#fff;stroke:#009a31;;stroke-width:2px" width="695" height="60" x="30" y="65" />
    <rect style="fill:#fff;stroke:#009a31;;stroke-width:2px" width="100" height="130" x="590" y="30" />
    <text style="font-family:Merriweather;font-family:Merriweather;font-weight:700;font-size:30px;font-style:italic" x="50" y="108">$Name</text>
    <rect style="stroke:#009a31;;stroke-width:1px" width="1" height="930" x="215" y="180" />
    <rect style="stroke:#009a31;;stroke-width:1px" width="1" height="930" x="200" y="180" />
    <g>
      <text style="font-family:Merriweather;font-weight:700;font-size:15px;text-anchor:middle" x="90" y="185">Skill/Task</text>
      <text style="font-family:Merriweather;font-weight:700;font-size:15px;text-anchor:middle" x="175" y="185">Level</text>
      <text style="font-family:Merriweather;font-weight:700;font-size:15px;text-anchor:middle" x="245" y="185">Value</text>
      <text style="font-family:Merriweather;font-weight:700;font-size:15px;text-anchor:middle" x="330" y="185">Dimension</text>
      <text style="font-family:Merriweather;font-weight:700;font-size:15px;text-anchor:middle" x="415" y="185">Value</text>
      <text style="font-family:Merriweather;font-weight:700;font-size:15px;text-anchor:middle" x="510" y="185">Dimension</text>
      <text style="font-family:Merriweather;font-weight:700;font-size:15px;text-anchor:middle" x="585" y="185">Value</text>
      <text style="font-family:Merriweather;font-weight:700;font-size:15px;text-anchor:middle" x="670" y="185">Dimension</text>
    </g>
    <rect style="stroke:#009a31;;stroke-width:1px" width="695" height="1" x="30" y="190" />
    <g>
      <rect height="20" x="030" y="195" width="120" style="fill:#009a31;;stroke-width:0" />
      <rect height="20" x="030" y="220" width="120" style="fill:#009a31;;stroke-width:0" />
      <rect height="20" x="155" y="195" width="40" style="fill:#ceffce;stroke-width:0" />
      <rect height="20" x="155" y="220" width="40" style="fill:#ceffce;stroke-width:0" />
      <rect height="20" x="220" y="220" width="50" style="fill:#ceffce;stroke-width:0" />
      <rect height="20" x="275" y="220" width="110" style="fill:#84cf96;stroke-width:0" />
      <rect height="20" x="390" y="220" width="50" style="fill:#ceffce;stroke-width:0" />
      <rect height="20" x="445" y="220" width="110" style="fill:#84cf96;stroke-width:0" />
      <rect height="20" x="560" y="220" width="50" style="fill:#ceffce;stroke-width:0" />
      <rect height="20" x="615" y="220" width="110" style="fill:#84cf96;stroke-width:0" />
      <text style="font-family:Merriweather;font-size:15px;font-weight:700;fill:#fff" x="035" y="210">$Sk-1N</text>
      <text style="font-family:Merriweather;font-size:15px;font-weight:700;fill:#fff" x="035" y="235">$Ta-1N</text>
      <text style="font-family:Merriweather;font-size:15px;text-anchor:middle" x="175" y="210">$Sk-1T</text>
      <text style="font-family:Merriweather;font-size:15px;text-anchor:middle" x="175" y="235">$Ta-1T</text>
      <text style="font-family:Merriweather;font-size:15px;text-anchor:middle" x="245" y="235">$Sk-1T1</text>
      <text style="font-family:Merriweather;font-size:15px;text-anchor:middle" x="330" y="235">$Sk-1X1</text>
      <text style="font-family:Merriweather;font-size:15px;text-anchor:middle" x="415" y="235">$Sk-1T2</text>
      <text style="font-family:Merriweather;font-size:15px;text-anchor:middle" x="510" y="235">$Sk-1X2</text>
      <text style="font-family:Merriweather;font-size:15px;text-anchor:middle" x="585" y="235">$Sk-1T3</text>
      <text style="font-family:Merriweather;font-size:15px;text-anchor:middle" x="670" y="235">$Sk-1X3</text>
    </g>
    <g transform="translate(0,50)">
      <rect height="20" x="030" y="195" width="120" style="fill:#009a31;;stroke-width:0" />
      <rect height="20" x="030" y="220" width="120" style="fill:#009a31;;stroke-width:0" />
      <rect height="20" x="155" y="195" width="40" style="fill:#ceffce;stroke-width:0" />
      <rect height="20" x="155" y="220" width="40" style="fill:#ceffce;stroke-width:0" />
      <rect height="20" x="220" y="220" width="50" style="fill:#ceffce;stroke-width:0" />
      <rect height="20" x="275" y="220" width="110" style="fill:#84cf96;stroke-width:0" />
      <rect height="20" x="390" y="220" width="50" style="fill:#ceffce;stroke-width:0" />
      <rect height="20" x="445" y="220" width="110" style="fill:#84cf96;stroke-width:0" />
      <rect height="20" x="560" y="220" width="50" style="fill:#ceffce;stroke-width:0" />
      <rect height="20" x="615" y="220" width="110" style="fill:#84cf96;stroke-width:0" />
      <text style="font-family:Merriweather;font-size:15px;font-weight:700;fill:#fff" x="035" y="210">$Sk-2N</text>
      <text style="font-family:Merriweather;font-size:15px;font-weight:700;fill:#fff" x="035" y="235">$Ta-2N</text>
      <text style="font-family:Merriweather;font-size:15px;text-anchor:middle" x="175" y="210">$Sk-2T</text>
      <text style="font-family:Merriweather;font-size:15px;text-anchor:middle" x="175" y="235">$Ta-2T</text>
      <text style="font-family:Merriweather;font-size:15px;text-anchor:middle" x="245" y="235">$Sk-2T1</text>
      <text style="font-family:Merriweather;font-size:15px;text-anchor:middle" x="330" y="235">$Sk-2X1</text>
      <text style="font-family:Merriweather;font-size:15px;text-anchor:middle" x="415" y="235">$Sk-2T2</text>
      <text style="font-family:Merriweather;font-size:15px;text-anchor:middle" x="510" y="235">$Sk-2X2</text>
      <text style="font-family:Merriweather;font-size:15px;text-anchor:middle" x="585" y="235">$Sk-2T3</text>
      <text style="font-family:Merriweather;font-size:15px;text-anchor:middle" x="670" y="235">$Sk-2X3</text>
    </g>
    <g transform="translate(0,100)">
      <rect height="20" x="030" y="195" width="120" style="fill:#009a31;;stroke-width:0" />
      <rect height="20" x="030" y="220" width="120" style="fill:#009a31;;stroke-width:0" />
      <rect height="20" x="155" y="195" width="40" style="fill:#ceffce;stroke-width:0" />
      <rect height="20" x="155" y="220" width="40" style="fill:#ceffce;stroke-width:0" />
      <rect height="20" x="220" y="220" width="50" style="fill:#ceffce;stroke-width:0" />
      <rect height="20" x="275" y="220" width="110" style="fill:#84cf96;stroke-width:0" />
      <rect height="20" x="390" y="220" width="50" style="fill:#ceffce;stroke-width:0" />
      <rect height="20" x="445" y="220" width="110" style="fill:#84cf96;stroke-width:0" />
      <rect height="20" x="560" y="220" width="50" style="fill:#ceffce;stroke-width:0" />
      <rect height="20" x="615" y="220" width="110" style="fill:#84cf96;stroke-width:0" />
      <text style="font-family:Merriweather;font-size:15px;font-weight:700;fill:#fff" x="035" y="210">$Sk-3N</text>
      <text style="font-family:Merriweather;font-size:15px;font-weight:700;fill:#fff" x="035" y="235">$Ta-3N</text>
      <text style="font-family:Merriweather;font-size:15px;text-anchor:middle" x="175" y="210">$Sk-3T</text>
      <text style="font-family:Merriweather;font-size:15px;text-anchor:middle" x="175" y="235">$Ta-3T</text>
      <text style="font-family:Merriweather;font-size:15px;text-anchor:middle" x="245" y="235">$Sk-3T1</text>
      <text style="font-family:Merriweather;font-size:15px;text-anchor:middle" x="330" y="235">$Sk-3X1</text>
      <text style="font-family:Merriweather;font-size:15px;text-anchor:middle" x="415" y="235">$Sk-3T2</text>
      <text style="font-family:Merriweather;font-size:15px;text-anchor:middle" x="510" y="235">$Sk-3X2</text>
      <text style="font-family:Merriweather;font-size:15px;text-anchor:middle" x="585" y="235">$Sk-3T3</text>
      <text style="font-family:Merriweather;font-size:15px;text-anchor:middle" x="670" y="235">$Sk-3X3</text>
    </g>
    <g transform="translate(0,150)">
      <rect height="20" x="030" y="195" width="120" style="fill:#009a31;;stroke-width:0" />
      <rect height="20" x="030" y="220" width="120" style="fill:#009a31;;stroke-width:0" />
      <rect height="20" x="155" y="195" width="40" style="fill:#ceffce;stroke-width:0" />
      <rect height="20" x="155" y="220" width="40" style="fill:#ceffce;stroke-width:0" />
      <rect height="20" x="220" y="220" width="50" style="fill:#ceffce;stroke-width:0" />
      <rect height="20" x="275" y="220" width="110" style="fill:#84cf96;stroke-width:0" />
      <rect height="20" x="390" y="220" width="50" style="fill:#ceffce;stroke-width:0" />
      <rect height="20" x="445" y="220" width="110" style="fill:#84cf96;stroke-width:0" />
      <rect height="20" x="560" y="220" width="50" style="fill:#ceffce;stroke-width:0" />
      <rect height="20" x="615" y="220" width="110" style="fill:#84cf96;stroke-width:0" />
      <text style="font-family:Merriweather;font-size:15px;font-weight:700;fill:#fff" x="035" y="210">$Sk-4N</text>
      <text style="font-family:Merriweather;font-size:15px;font-weight:700;fill:#fff" x="035" y="235">$Ta-4N</text>
      <text style="font-family:Merriweather;font-size:15px;text-anchor:middle" x="175" y="210">$Sk-4T</text>
      <text style="font-family:Merriweather;font-size:15px;text-anchor:middle" x="175" y="235">$Ta-4T</text>
      <text style="font-family:Merriweather;font-size:15px;text-anchor:middle" x="245" y="235">$Sk-4T1</text>
      <text style="font-family:Merriweather;font-size:15px;text-anchor:middle" x="330" y="235">$Sk-4X1</text>
      <text style="font-family:Merriweather;font-size:15px;text-anchor:middle" x="415" y="235">$Sk-4T2</text>
      <text style="font-family:Merriweather;font-size:15px;text-anchor:middle" x="510" y="235">$Sk-4X2</text>
      <text style="font-family:Merriweather;font-size:15px;text-anchor:middle" x="585" y="235">$Sk-4T3</text>
      <text style="font-family:Merriweather;font-size:15px;text-anchor:middle" x="670" y="235">$Sk-4X3</text>
    </g>
    <g transform="translate(0,200)">
      <rect height="20" x="030" y="195" width="120" style="fill:#009a31;;stroke-width:0" />
      <rect height="20" x="030" y="220" width="120" style="fill:#009a31;;stroke-width:0" />
      <rect height="20" x="155" y="195" width="40" style="fill:#ceffce;stroke-width:0" />
      <rect height="20" x="155" y="220" width="40" style="fill:#ceffce;stroke-width:0" />
      <rect height="20" x="220" y="220" width="50" style="fill:#ceffce;stroke-width:0" />
      <rect height="20" x="275" y="220" width="110" style="fill:#84cf96;stroke-width:0" />
      <rect height="20" x="390" y="220" width="50" style="fill:#ceffce;stroke-width:0" />
      <rect height="20" x="445" y="220" width="110" style="fill:#84cf96;stroke-width:0" />
      <rect height="20" x="560" y="220" width="50" style="fill:#ceffce;stroke-width:0" />
      <rect height="20" x="615" y="220" width="110" style="fill:#84cf96;stroke-width:0" />
      <text style="font-family:Merriweather;font-size:15px;font-weight:700;fill:#fff" x="035" y="210">$Sk-5N</text>
      <text style="font-family:Merriweather;font-size:15px;font-weight:700;fill:#fff" x="035" y="235">$Ta-5N</text>
      <text style="font-family:Merriweather;font-size:15px;text-anchor:middle" x="175" y="210">$Sk-5T</text>
      <text style="font-family:Merriweather;font-size:15px;text-anchor:middle" x="175" y="235">$Ta-5T</text>
      <text style="font-family:Merriweather;font-size:15px;text-anchor:middle" x="245" y="235">$Sk-5T1</text>
      <text style="font-family:Merriweather;font-size:15px;text-anchor:middle" x="330" y="235">$Sk-5X1</text>
      <text style="font-family:Merriweather;font-size:15px;text-anchor:middle" x="415" y="235">$Sk-5T2</text>
      <text style="font-family:Merriweather;font-size:15px;text-anchor:middle" x="510" y="235">$Sk-5X2</text>
      <text style="font-family:Merriweather;font-size:15px;text-anchor:middle" x="585" y="235">$Sk-5T3</text>
      <text style="font-family:Merriweather;font-size:15px;text-anchor:middle" x="670" y="235">$Sk-5X3</text>
    </g>
    <rect style="stroke:#009a31;;stroke-width:1px" width="695" height="1" x="30" y="445" />
    <g transform="translate(0,255)">
      <rect height="20" x="030" y="195" width="120" style="fill:#009a31;;stroke-width:0" />
      <rect height="20" x="030" y="220" width="120" style="fill:#009a31;;stroke-width:0" />
      <rect height="20" x="155" y="195" width="40" style="fill:#ceffce;stroke-width:0" />
      <rect height="20" x="155" y="220" width="40" style="fill:#ceffce;stroke-width:0" />
      <rect height="20" x="220" y="220" width="50" style="fill:#ceffce;stroke-width:0" />
      <rect height="20" x="275" y="220" width="110" style="fill:#84cf96;stroke-width:0" />
      <rect height="20" x="390" y="220" width="50" style="fill:#ceffce;stroke-width:0" />
      <rect height="20" x="445" y="220" width="110" style="fill:#84cf96;stroke-width:0" />
      <rect height="20" x="560" y="220" width="50" style="fill:#ceffce;stroke-width:0" />
      <rect height="20" x="615" y="220" width="110" style="fill:#84cf96;stroke-width:0" />
      <text style="font-family:Merriweather;font-size:15px;font-weight:700;fill:#fff" x="035" y="210">$Sk-6N</text>
      <text style="font-family:Merriweather;font-size:15px;font-weight:700;fill:#fff" x="035" y="235">$Ta-6N</text>
      <text style="font-family:Merriweather;font-size:15px;text-anchor:middle" x="175" y="210">$Sk-6T</text>
      <text style="font-family:Merriweather;font-size:15px;text-anchor:middle" x="175" y="235">$Ta-6T</text>
      <text style="font-family:Merriweather;font-size:15px;text-anchor:middle" x="245" y="235">$Sk-6T1</text>
      <text style="font-family:Merriweather;font-size:15px;text-anchor:middle" x="330" y="235">$Sk-6X1</text>
      <text style="font-family:Merriweather;font-size:15px;text-anchor:middle" x="415" y="235">$Sk-6T2</text>
      <text style="font-family:Merriweather;font-size:15px;text-anchor:middle" x="510" y="235">$Sk-6X2</text>
      <text style="font-family:Merriweather;font-size:15px;text-anchor:middle" x="585" y="235">$Sk-6T3</text>
      <text style="font-family:Merriweather;font-size:15px;text-anchor:middle" x="670" y="235">$Sk-6X3</text>
    </g>
    <g transform="translate(0,305)">
      <rect height="20" x="030" y="195" width="120" style="fill:#009a31;;stroke-width:0" />
      <rect height="20" x="030" y="220" width="120" style="fill:#009a31;;stroke-width:0" />
      <rect height="20" x="155" y="195" width="40" style="fill:#ceffce;stroke-width:0" />
      <rect height="20" x="155" y="220" width="40" style="fill:#ceffce;stroke-width:0" />
      <rect height="20" x="220" y="220" width="50" style="fill:#ceffce;stroke-width:0" />
      <rect height="20" x="275" y="220" width="110" style="fill:#84cf96;stroke-width:0" />
      <rect height="20" x="390" y="220" width="50" style="fill:#ceffce;stroke-width:0" />
      <rect height="20" x="445" y="220" width="110" style="fill:#84cf96;stroke-width:0" />
      <rect height="20" x="560" y="220" width="50" style="fill:#ceffce;stroke-width:0" />
      <rect height="20" x="615" y="220" width="110" style="fill:#84cf96;stroke-width:0" />
      <text style="font-family:Merriweather;font-size:15px;font-weight:700;fill:#fff" x="035" y="210">$Sk-7N</text>
      <text style="font-family:Merriweather;font-size:15px;font-weight:700;fill:#fff" x="035" y="235">$Ta-7N</text>
      <text style="font-family:Merriweather;font-size:15px;text-anchor:middle" x="175" y="210">$Sk-7T</text>
      <text style="font-family:Merriweather;font-size:15px;text-anchor:middle" x="175" y="235">$Ta-7T</text>
      <text style="font-family:Merriweather;font-size:15px;text-anchor:middle" x="245" y="235">$Sk-7T1</text>
      <text style="font-family:Merriweather;font-size:15px;text-anchor:middle" x="330" y="235">$Sk-7X1</text>
      <text style="font-family:Merriweather;font-size:15px;text-anchor:middle" x="415" y="235">$Sk-7T2</text>
      <text style="font-family:Merriweather;font-size:15px;text-anchor:middle" x="510" y="235">$Sk-7X2</text>
      <text style="font-family:Merriweather;font-size:15px;text-anchor:middle" x="585" y="235">$Sk-7T3</text>
      <text style="font-family:Merriweather;font-size:15px;text-anchor:middle" x="670" y="235">$Sk-7X3</text>
    </g>
    <g transform="translate(0,355)">
      <rect height="20" x="030" y="195" width="120" style="fill:#009a31;;stroke-width:0" />
      <rect height="20" x="030" y="220" width="120" style="fill:#009a31;;stroke-width:0" />
      <rect height="20" x="155" y="195" width="40" style="fill:#ceffce;stroke-width:0" />
      <rect height="20" x="155" y="220" width="40" style="fill:#ceffce;stroke-width:0" />
      <rect height="20" x="220" y="220" width="50" style="fill:#ceffce;stroke-width:0" />
      <rect height="20" x="275" y="220" width="110" style="fill:#84cf96;stroke-width:0" />
      <rect height="20" x="390" y="220" width="50" style="fill:#ceffce;stroke-width:0" />
      <rect height="20" x="445" y="220" width="110" style="fill:#84cf96;stroke-width:0" />
      <rect height="20" x="560" y="220" width="50" style="fill:#ceffce;stroke-width:0" />
      <rect height="20" x="615" y="220" width="110" style="fill:#84cf96;stroke-width:0" />
      <text style="font-family:Merriweather;font-size:15px;font-weight:700;fill:#fff" x="035" y="210">$Sk-8N</text>
      <text style="font-family:Merriweather;font-size:15px;font-weight:700;fill:#fff" x="035" y="235">$Ta-8N</text>
      <text style="font-family:Merriweather;font-size:15px;text-anchor:middle" x="175" y="210">$Sk-8T</text>
      <text style="font-family:Merriweather;font-size:15px;text-anchor:middle" x="175" y="235">$Ta-8T</text>
      <text style="font-family:Merriweather;font-size:15px;text-anchor:middle" x="245" y="235">$Sk-8T1</text>
      <text style="font-family:Merriweather;font-size:15px;text-anchor:middle" x="330" y="235">$Sk-8X1</text>
      <text style="font-family:Merriweather;font-size:15px;text-anchor:middle" x="415" y="235">$Sk-8T2</text>
      <text style="font-family:Merriweather;font-size:15px;text-anchor:middle" x="510" y="235">$Sk-8X2</text>
      <text style="font-family:Merriweather;font-size:15px;text-anchor:middle" x="585" y="235">$Sk-8T3</text>
      <text style="font-family:Merriweather;font-size:15px;text-anchor:middle" x="670" y="235">$Sk-8X3</text>
    </g>
    <g transform="translate(0,405)">
      <rect height="20" x="030" y="195" width="120" style="fill:#009a31;;stroke-width:0" />
      <rect height="20" x="030" y="220" width="120" style="fill:#009a31;;stroke-width:0" />
      <rect height="20" x="155" y="195" width="40" style="fill:#ceffce;stroke-width:0" />
      <rect height="20" x="155" y="220" width="40" style="fill:#ceffce;stroke-width:0" />
      <rect height="20" x="220" y="220" width="50" style="fill:#ceffce;stroke-width:0" />
      <rect height="20" x="275" y="220" width="110" style="fill:#84cf96;stroke-width:0" />
      <rect height="20" x="390" y="220" width="50" style="fill:#ceffce;stroke-width:0" />
      <rect height="20" x="445" y="220" width="110" style="fill:#84cf96;stroke-width:0" />
      <rect height="20" x="560" y="220" width="50" style="fill:#ceffce;stroke-width:0" />
      <rect height="20" x="615" y="220" width="110" style="fill:#84cf96;stroke-width:0" />
      <text style="font-family:Merriweather;font-size:15px;font-weight:700;fill:#fff" x="035" y="210">$Sk-9N</text>
      <text style="font-family:Merriweather;font-size:15px;font-weight:700;fill:#fff" x="035" y="235">$Ta-9N</text>
      <text style="font-family:Merriweather;font-size:15px;text-anchor:middle" x="175" y="210">$Sk-9T</text>
      <text style="font-family:Merriweather;font-size:15px;text-anchor:middle" x="175" y="235">$Ta-9T</text>
      <text style="font-family:Merriweather;font-size:15px;text-anchor:middle" x="245" y="235">$Sk-9T1</text>
      <text style="font-family:Merriweather;font-size:15px;text-anchor:middle" x="330" y="235">$Sk-9X1</text>
      <text style="font-family:Merriweather;font-size:15px;text-anchor:middle" x="415" y="235">$Sk-9T2</text>
      <text style="font-family:Merriweather;font-size:15px;text-anchor:middle" x="510" y="235">$Sk-9X2</text>
      <text style="font-family:Merriweather;font-size:15px;text-anchor:middle" x="585" y="235">$Sk-9T3</text>
      <text style="font-family:Merriweather;font-size:15px;text-anchor:middle" x="670" y="235">$Sk-9X3</text>
    </g>
    <g transform="translate(0,455)">
      <rect height="20" x="030" y="195" width="120" style="fill:#009a31;;stroke-width:0" />
      <rect height="20" x="030" y="220" width="120" style="fill:#009a31;;stroke-width:0" />
      <rect height="20" x="155" y="195" width="40" style="fill:#ceffce;stroke-width:0" />
      <rect height="20" x="155" y="220" width="40" style="fill:#ceffce;stroke-width:0" />
      <rect height="20" x="220" y="220" width="50" style="fill:#ceffce;stroke-width:0" />
      <rect height="20" x="275" y="220" width="110" style="fill:#84cf96;stroke-width:0" />
      <rect height="20" x="390" y="220" width="50" style="fill:#ceffce;stroke-width:0" />
      <rect height="20" x="445" y="220" width="110" style="fill:#84cf96;stroke-width:0" />
      <rect height="20" x="560" y="220" width="50" style="fill:#ceffce;stroke-width:0" />
      <rect height="20" x="615" y="220" width="110" style="fill:#84cf96;stroke-width:0" />
      <text style="font-family:Merriweather;font-size:15px;font-weight:700;fill:#fff" x="035" y="210">$Sk-10N</text>
      <text style="font-family:Merriweather;font-size:15px;font-weight:700;fill:#fff" x="035" y="235">$Ta-10N</text>
      <text style="font-family:Merriweather;font-size:15px;text-anchor:middle" x="175" y="210">$Sk-10T</text>
      <text style="font-family:Merriweather;font-size:15px;text-anchor:middle" x="175" y="235">$Ta-10T</text>
      <text style="font-family:Merriweather;font-size:15px;text-anchor:middle" x="245" y="235">$Sk-10T1</text>
      <text style="font-family:Merriweather;font-size:15px;text-anchor:middle" x="330" y="235">$Sk-10X1</text>
      <text style="font-family:Merriweather;font-size:15px;text-anchor:middle" x="415" y="235">$Sk-10T2</text>
      <text style="font-family:Merriweather;font-size:15px;text-anchor:middle" x="510" y="235">$Sk-10X2</text>
      <text style="font-family:Merriweather;font-size:15px;text-anchor:middle" x="585" y="235">$Sk-10T3</text>
      <text style="font-family:Merriweather;font-size:15px;text-anchor:middle" x="670" y="235">$Sk-10X3</text>
    </g>
    <rect style="stroke:#009a31;;stroke-width:1px" width="695" height="1" x="30" y="700" />
    <g transform="translate(0,510)">
      <rect height="20" x="030" y="195" width="120" style="fill:#009a31;;stroke-width:0" />
      <rect height="20" x="030" y="220" width="120" style="fill:#009a31;;stroke-width:0" />
      <rect height="20" x="155" y="195" width="40" style="fill:#ceffce;stroke-width:0" />
      <rect height="20" x="155" y="220" width="40" style="fill:#ceffce;stroke-width:0" />
      <rect height="20" x="220" y="220" width="50" style="fill:#ceffce;stroke-width:0" />
      <rect height="20" x="275" y="220" width="110" style="fill:#84cf96;stroke-width:0" />
      <rect height="20" x="390" y="220" width="50" style="fill:#ceffce;stroke-width:0" />
      <rect height="20" x="445" y="220" width="110" style="fill:#84cf96;stroke-width:0" />
      <rect height="20" x="560" y="220" width="50" style="fill:#ceffce;stroke-width:0" />
      <rect height="20" x="615" y="220" width="110" style="fill:#84cf96;stroke-width:0" />
      <text style="font-family:Merriweather;font-size:15px;font-weight:700;fill:#fff" x="035" y="210">$Sk-11N</text>
      <text style="font-family:Merriweather;font-size:15px;font-weight:700;fill:#fff" x="035" y="235">$Ta-11N</text>
      <text style="font-family:Merriweather;font-size:15px;text-anchor:middle" x="175" y="210">$Sk-11T</text>
      <text style="font-family:Merriweather;font-size:15px;text-anchor:middle" x="175" y="235">$Ta-11T</text>
      <text style="font-family:Merriweather;font-size:15px;text-anchor:middle" x="245" y="235">$Sk-11T1</text>
      <text style="font-family:Merriweather;font-size:15px;text-anchor:middle" x="330" y="235">$Sk-11X1</text>
      <text style="font-family:Merriweather;font-size:15px;text-anchor:middle" x="415" y="235">$Sk-11T2</text>
      <text style="font-family:Merriweather;font-size:15px;text-anchor:middle" x="510" y="235">$Sk-11X2</text>
      <text style="font-family:Merriweather;font-size:15px;text-anchor:middle" x="585" y="235">$Sk-11T3</text>
      <text style="font-family:Merriweather;font-size:15px;text-anchor:middle" x="670" y="235">$Sk-11X3</text>
    </g>
    <g transform="translate(0,560)">
      <rect height="20" x="030" y="195" width="120" style="fill:#009a31;;stroke-width:0" />
      <rect height="20" x="030" y="220" width="120" style="fill:#009a31;;stroke-width:0" />
      <rect height="20" x="155" y="195" width="40" style="fill:#ceffce;stroke-width:0" />
      <rect height="20" x="155" y="220" width="40" style="fill:#ceffce;stroke-width:0" />
      <rect height="20" x="220" y="220" width="50" style="fill:#ceffce;stroke-width:0" />
      <rect height="20" x="275" y="220" width="110" style="fill:#84cf96;stroke-width:0" />
      <rect height="20" x="390" y="220" width="50" style="fill:#ceffce;stroke-width:0" />
      <rect height="20" x="445" y="220" width="110" style="fill:#84cf96;stroke-width:0" />
      <rect height="20" x="560" y="220" width="50" style="fill:#ceffce;stroke-width:0" />
      <rect height="20" x="615" y="220" width="110" style="fill:#84cf96;stroke-width:0" />
      <text style="font-family:Merriweather;font-size:15px;font-weight:700;fill:#fff" x="035" y="210">$Sk-12N</text>
      <text style="font-family:Merriweather;font-size:15px;font-weight:700;fill:#fff" x="035" y="235">$Ta-12N</text>
      <text style="font-family:Merriweather;font-size:15px;text-anchor:middle" x="175" y="210">$Sk-12T</text>
      <text style="font-family:Merriweather;font-size:15px;text-anchor:middle" x="175" y="235">$Ta-12T</text>
      <text style="font-family:Merriweather;font-size:15px;text-anchor:middle" x="245" y="235">$Sk-12T1</text>
      <text style="font-family:Merriweather;font-size:15px;text-anchor:middle" x="330" y="235">$Sk-12X1</text>
      <text style="font-family:Merriweather;font-size:15px;text-anchor:middle" x="415" y="235">$Sk-12T2</text>
      <text style="font-family:Merriweather;font-size:15px;text-anchor:middle" x="510" y="235">$Sk-12X2</text>
      <text style="font-family:Merriweather;font-size:15px;text-anchor:middle" x="585" y="235">$Sk-12T3</text>
      <text style="font-family:Merriweather;font-size:15px;text-anchor:middle" x="670" y="235">$Sk-12X3</text>
    </g>
    <g transform="translate(0,610)">
      <rect height="20" x="030" y="195" width="120" style="fill:#009a31;;stroke-width:0" />
      <rect height="20" x="030" y="220" width="120" style="fill:#009a31;;stroke-width:0" />
      <rect height="20" x="155" y="195" width="40" style="fill:#ceffce;stroke-width:0" />
      <rect height="20" x="155" y="220" width="40" style="fill:#ceffce;stroke-width:0" />
      <rect height="20" x="220" y="220" width="50" style="fill:#ceffce;stroke-width:0" />
      <rect height="20" x="275" y="220" width="110" style="fill:#84cf96;stroke-width:0" />
      <rect height="20" x="390" y="220" width="50" style="fill:#ceffce;stroke-width:0" />
      <rect height="20" x="445" y="220" width="110" style="fill:#84cf96;stroke-width:0" />
      <rect height="20" x="560" y="220" width="50" style="fill:#ceffce;stroke-width:0" />
      <rect height="20" x="615" y="220" width="110" style="fill:#84cf96;stroke-width:0" />
      <text style="font-family:Merriweather;font-size:15px;font-weight:700;fill:#fff" x="035" y="210">$Sk-13N</text>
      <text style="font-family:Merriweather;font-size:15px;font-weight:700;fill:#fff" x="035" y="235">$Ta-13N</text>
      <text style="font-family:Merriweather;font-size:15px;text-anchor:middle" x="175" y="210">$Sk-13T</text>
      <text style="font-family:Merriweather;font-size:15px;text-anchor:middle" x="175" y="235">$Ta-13T</text>
      <text style="font-family:Merriweather;font-size:15px;text-anchor:middle" x="245" y="235">$Sk-13T1</text>
      <text style="font-family:Merriweather;font-size:15px;text-anchor:middle" x="330" y="235">$Sk-13X1</text>
      <text style="font-family:Merriweather;font-size:15px;text-anchor:middle" x="415" y="235">$Sk-13T2</text>
      <text style="font-family:Merriweather;font-size:15px;text-anchor:middle" x="510" y="235">$Sk-13X2</text>
      <text style="font-family:Merriweather;font-size:15px;text-anchor:middle" x="585" y="235">$Sk-13T3</text>
      <text style="font-family:Merriweather;font-size:15px;text-anchor:middle" x="670" y="235">$Sk-13X3</text>
    </g>
    <g transform="translate(0,660)">
      <rect height="20" x="030" y="195" width="120" style="fill:#009a31;;stroke-width:0" />
      <rect height="20" x="030" y="220" width="120" style="fill:#009a31;;stroke-width:0" />
      <rect height="20" x="155" y="195" width="40" style="fill:#ceffce;stroke-width:0" />
      <rect height="20" x="155" y="220" width="40" style="fill:#ceffce;stroke-width:0" />
      <rect height="20" x="220" y="220" width="50" style="fill:#ceffce;stroke-width:0" />
      <rect height="20" x="275" y="220" width="110" style="fill:#84cf96;stroke-width:0" />
      <rect height="20" x="390" y="220" width="50" style="fill:#ceffce;stroke-width:0" />
      <rect height="20" x="445" y="220" width="110" style="fill:#84cf96;stroke-width:0" />
      <rect height="20" x="560" y="220" width="50" style="fill:#ceffce;stroke-width:0" />
      <rect height="20" x="615" y="220" width="110" style="fill:#84cf96;stroke-width:0" />
      <text style="font-family:Merriweather;font-size:15px;font-weight:700;fill:#fff" x="035" y="210">$Sk-14N</text>
      <text style="font-family:Merriweather;font-size:15px;font-weight:700;fill:#fff" x="035" y="235">$Ta-14N</text>
      <text style="font-family:Merriweather;font-size:15px;text-anchor:middle" x="175" y="210">$Sk-14T</text>
      <text style="font-family:Merriweather;font-size:15px;text-anchor:middle" x="175" y="235">$Ta-14T</text>
      <text style="font-family:Merriweather;font-size:15px;text-anchor:middle" x="245" y="235">$Sk-14T1</text>
      <text style="font-family:Merriweather;font-size:15px;text-anchor:middle" x="330" y="235">$Sk-14X1</text>
      <text style="font-family:Merriweather;font-size:15px;text-anchor:middle" x="415" y="235">$Sk-14T2</text>
      <text style="font-family:Merriweather;font-size:15px;text-anchor:middle" x="510" y="235">$Sk-14X2</text>
      <text style="font-family:Merriweather;font-size:15px;text-anchor:middle" x="585" y="235">$Sk-14T3</text>
      <text style="font-family:Merriweather;font-size:15px;text-anchor:middle" x="670" y="235">$Sk-14X3</text>
    </g>
    <g transform="translate(0,710)">
      <rect height="20" x="030" y="195" width="120" style="fill:#009a31;;stroke-width:0" />
      <rect height="20" x="030" y="220" width="120" style="fill:#009a31;;stroke-width:0" />
      <rect height="20" x="155" y="195" width="40" style="fill:#ceffce;stroke-width:0" />
      <rect height="20" x="155" y="220" width="40" style="fill:#ceffce;stroke-width:0" />
      <rect height="20" x="220" y="220" width="50" style="fill:#ceffce;stroke-width:0" />
      <rect height="20" x="275" y="220" width="110" style="fill:#84cf96;stroke-width:0" />
      <rect height="20" x="390" y="220" width="50" style="fill:#ceffce;stroke-width:0" />
      <rect height="20" x="445" y="220" width="110" style="fill:#84cf96;stroke-width:0" />
      <rect height="20" x="560" y="220" width="50" style="fill:#ceffce;stroke-width:0" />
      <rect height="20" x="615" y="220" width="110" style="fill:#84cf96;stroke-width:0" />
      <text style="font-family:Merriweather;font-size:15px;font-weight:700;fill:#fff" x="035" y="210">$Sk-15N</text>
      <text style="font-family:Merriweather;font-size:15px;font-weight:700;fill:#fff" x="035" y="235">$Ta-15N</text>
      <text style="font-family:Merriweather;font-size:15px;text-anchor:middle" x="175" y="210">$Sk-15T</text>
      <text style="font-family:Merriweather;font-size:15px;text-anchor:middle" x="175" y="235">$Ta-15T</text>
      <text style="font-family:Merriweather;font-size:15px;text-anchor:middle" x="245" y="235">$Sk-15T1</text>
      <text style="font-family:Merriweather;font-size:15px;text-anchor:middle" x="330" y="235">$Sk-15X1</text>
      <text style="font-family:Merriweather;font-size:15px;text-anchor:middle" x="415" y="235">$Sk-15T2</text>
      <text style="font-family:Merriweather;font-size:15px;text-anchor:middle" x="510" y="235">$Sk-15X2</text>
      <text style="font-family:Merriweather;font-size:15px;text-anchor:middle" x="585" y="235">$Sk-15T3</text>
      <text style="font-family:Merriweather;font-size:15px;text-anchor:middle" x="670" y="235">$Sk-15X3</text>
    </g>
    <rect style="stroke:#009a31;;stroke-width:1px" width="695" height="1" x="30" y="955" />
    <g transform="translate(0,765)">
      <rect height="20" x="030" y="195" width="120" style="fill:#009a31;;stroke-width:0" />
      <rect height="20" x="030" y="220" width="120" style="fill:#009a31;;stroke-width:0" />
      <rect height="20" x="155" y="195" width="40" style="fill:#ceffce;stroke-width:0" />
      <rect height="20" x="155" y="220" width="40" style="fill:#ceffce;stroke-width:0" />
      <rect height="20" x="220" y="220" width="50" style="fill:#ceffce;stroke-width:0" />
      <rect height="20" x="275" y="220" width="110" style="fill:#84cf96;stroke-width:0" />
      <rect height="20" x="390" y="220" width="50" style="fill:#ceffce;stroke-width:0" />
      <rect height="20" x="445" y="220" width="110" style="fill:#84cf96;stroke-width:0" />
      <rect height="20" x="560" y="220" width="50" style="fill:#ceffce;stroke-width:0" />
      <rect height="20" x="615" y="220" width="110" style="fill:#84cf96;stroke-width:0" />
      <text style="font-family:Merriweather;font-size:15px;font-weight:700;fill:#fff" x="035" y="210">$Sk-16N</text>
      <text style="font-family:Merriweather;font-size:15px;font-weight:700;fill:#fff" x="035" y="235">$Ta-16N</text>
      <text style="font-family:Merriweather;font-size:15px;text-anchor:middle" x="175" y="210">$Sk-16T</text>
      <text style="font-family:Merriweather;font-size:15px;text-anchor:middle" x="175" y="235">$Ta-16T</text>
      <text style="font-family:Merriweather;font-size:15px;text-anchor:middle" x="245" y="235">$Sk-16T1</text>
      <text style="font-family:Merriweather;font-size:15px;text-anchor:middle" x="330" y="235">$Sk-16X1</text>
      <text style="font-family:Merriweather;font-size:15px;text-anchor:middle" x="415" y="235">$Sk-16T2</text>
      <text style="font-family:Merriweather;font-size:15px;text-anchor:middle" x="510" y="235">$Sk-16X2</text>
      <text style="font-family:Merriweather;font-size:15px;text-anchor:middle" x="585" y="235">$Sk-16T3</text>
      <text style="font-family:Merriweather;font-size:15px;text-anchor:middle" x="670" y="235">$Sk-16X3</text>
    </g>
    <g transform="translate(0,815)">
      <rect height="20" x="030" y="195" width="120" style="fill:#009a31;;stroke-width:0" />
      <rect height="20" x="030" y="220" width="120" style="fill:#009a31;;stroke-width:0" />
      <rect height="20" x="155" y="195" width="40" style="fill:#ceffce;stroke-width:0" />
      <rect height="20" x="155" y="220" width="40" style="fill:#ceffce;stroke-width:0" />
      <rect height="20" x="220" y="220" width="50" style="fill:#ceffce;stroke-width:0" />
      <rect height="20" x="275" y="220" width="110" style="fill:#84cf96;stroke-width:0" />
      <rect height="20" x="390" y="220" width="50" style="fill:#ceffce;stroke-width:0" />
      <rect height="20" x="445" y="220" width="110" style="fill:#84cf96;stroke-width:0" />
      <rect height="20" x="560" y="220" width="50" style="fill:#ceffce;stroke-width:0" />
      <rect height="20" x="615" y="220" width="110" style="fill:#84cf96;stroke-width:0" />
      <text style="font-family:Merriweather;font-size:15px;font-weight:700;fill:#fff" x="035" y="210">$Sk-17N</text>
      <text style="font-family:Merriweather;font-size:15px;font-weight:700;fill:#fff" x="035" y="235">$Ta-17N</text>
      <text style="font-family:Merriweather;font-size:15px;text-anchor:middle" x="175" y="210">$Sk-17T</text>
      <text style="font-family:Merriweather;font-size:15px;text-anchor:middle" x="175" y="235">$Ta-17T</text>
      <text style="font-family:Merriweather;font-size:15px;text-anchor:middle" x="245" y="235">$Sk-17T1</text>
      <text style="font-family:Merriweather;font-size:15px;text-anchor:middle" x="330" y="235">$Sk-17X1</text>
      <text style="font-family:Merriweather;font-size:15px;text-anchor:middle" x="415" y="235">$Sk-17T2</text>
      <text style="font-family:Merriweather;font-size:15px;text-anchor:middle" x="510" y="235">$Sk-17X2</text>
      <text style="font-family:Merriweather;font-size:15px;text-anchor:middle" x="585" y="235">$Sk-17T3</text>
      <text style="font-family:Merriweather;font-size:15px;text-anchor:middle" x="670" y="235">$Sk-17X3</text>
    </g>
    <g transform="translate(0,865)">
      <rect height="20" x="030" y="195" width="120" style="fill:#009a31;;stroke-width:0" />
      <rect height="20" x="030" y="220" width="120" style="fill:#009a31;;stroke-width:0" />
      <rect height="20" x="155" y="195" width="40" style="fill:#ceffce;stroke-width:0" />
      <rect height="20" x="155" y="220" width="40" style="fill:#ceffce;stroke-width:0" />
      <rect height="20" x="220" y="220" width="50" style="fill:#ceffce;stroke-width:0" />
      <rect height="20" x="275" y="220" width="110" style="fill:#84cf96;stroke-width:0" />
      <rect height="20" x="390" y="220" width="50" style="fill:#ceffce;stroke-width:0" />
      <rect height="20" x="445" y="220" width="110" style="fill:#84cf96;stroke-width:0" />
      <rect height="20" x="560" y="220" width="50" style="fill:#ceffce;stroke-width:0" />
      <rect height="20" x="615" y="220" width="110" style="fill:#84cf96;stroke-width:0" />
      <text style="font-family:Merriweather;font-size:15px;font-weight:700;fill:#fff" x="035" y="210">$Sk-18N</text>
      <text style="font-family:Merriweather;font-size:15px;font-weight:700;fill:#fff" x="035" y="235">$Ta-18N</text>
      <text style="font-family:Merriweather;font-size:15px;text-anchor:middle" x="175" y="210">$Sk-18T</text>
      <text style="font-family:Merriweather;font-size:15px;text-anchor:middle" x="175" y="235">$Ta-18T</text>
      <text style="font-family:Merriweather;font-size:15px;text-anchor:middle" x="245" y="235">$Sk-18T1</text>
      <text style="font-family:Merriweather;font-size:15px;text-anchor:middle" x="330" y="235">$Sk-18X1</text>
      <text style="font-family:Merriweather;font-size:15px;text-anchor:middle" x="415" y="235">$Sk-18T2</text>
      <text style="font-family:Merriweather;font-size:15px;text-anchor:middle" x="510" y="235">$Sk-18X2</text>
      <text style="font-family:Merriweather;font-size:15px;text-anchor:middle" x="585" y="235">$Sk-18T3</text>
      <text style="font-family:Merriweather;font-size:15px;text-anchor:middle" x="670" y="235">$Sk-18X3</text>
    </g>
  </g>
</svg>
